<svg width="50" height="48" viewBox="0 0 50 48" fill="none" xmlns="http://www.w3.org/2000/svg">
<path d="M49.1602 21.1141L44.9363 17.2654V4.50337C44.9363 3.69136 44.278 3.03296 43.4659 3.03296H33.2984C32.4864 3.03296 31.828 3.69126 31.828 4.50337V5.32114L26.7268 0.672998C25.7422 -0.224365 24.2573 -0.224268 23.273 0.6729L0.839634 21.1142C0.0509617 21.833 -0.209683 22.9404 0.175669 23.9354C0.561118 24.9304 1.49959 25.5733 2.56668 25.5733H6.14959V46.0539C6.14959 46.8659 6.8079 47.5243 7.62 47.5243H19.9162C20.7282 47.5243 21.3866 46.866 21.3866 46.0539V33.6187H28.6133V46.054C28.6133 46.866 29.2716 47.5244 30.0837 47.5244H42.3794C43.1914 47.5244 43.8498 46.8661 43.8497 46.054V25.5734H47.4334C48.5004 25.5734 49.4389 24.9304 49.8244 23.9355C50.2097 22.9404 49.9491 21.833 49.1602 21.1141ZM42.3794 22.6326C41.5674 22.6326 40.909 23.2909 40.909 24.103V44.5835H31.5542V32.1483C31.5542 31.3363 30.8958 30.6779 30.0838 30.6779H19.9162C19.1042 30.6779 18.4458 31.3362 18.4458 32.1483V44.5835H9.09032V24.103C9.09032 23.291 8.43202 22.6326 7.61991 22.6326H3.53954L25.0001 3.07788L32.3083 9.73716C32.7388 10.1293 33.3601 10.2304 33.8927 9.99536C34.4253 9.76001 34.7689 9.23247 34.7689 8.65024V5.97378H41.9957V17.9148C41.9957 18.3286 42.1699 18.723 42.4758 19.0017L46.4604 22.6326H42.3794Z" fill="white"/>
</svg>
