<svg width="88" height="54" viewBox="0 0 88 54" fill="none" xmlns="http://www.w3.org/2000/svg">
<path fill-rule="evenodd" clip-rule="evenodd" d="M48.2823 1.10081C48.13 1.73879 47.9068 2.59364 47.7861 2.99955C47.6654 3.40545 47.7696 3.73794 48.0173 3.73794C48.265 3.73794 48.4675 3.44132 48.4675 3.07845C48.4675 2.70335 48.7857 2.45145 49.2059 2.49406C50.638 2.64005 50.9992 2.46326 50.9992 1.61769C50.9992 1.089 50.5869 0.606721 49.9169 0.351868C48.5025 -0.185685 48.5996 -0.229989 48.2823 1.10081ZM43.4042 2.26115C43.4042 3.61221 43.5181 3.78056 44.3536 3.66199C45.097 3.55609 45.303 3.25271 45.303 2.26115C45.303 1.26959 45.097 0.966214 44.3536 0.860307C43.5181 0.741742 43.4042 0.910096 43.4042 2.26115ZM50.4717 1.52275C50.5751 1.83204 50.284 2.05018 49.7684 2.05018C49.2502 2.05018 48.8895 1.77761 48.8895 1.38647C48.8895 0.61094 50.2059 0.724442 50.4717 1.52275ZM38.7629 1.55187C38.7629 1.79828 38.9443 2.11263 39.1662 2.24976C39.3882 2.38689 39.4654 2.82529 39.3376 3.22402C39.1595 3.78014 39.2004 3.81558 39.5144 3.37634C39.8 2.97634 40.0101 2.94427 40.2118 3.27086C40.3705 3.52782 40.7084 3.73794 40.9629 3.73794C41.2291 3.73794 41.1527 3.42486 40.7819 2.99955C40.4283 2.59364 40.1949 2.01896 40.2629 1.72318C40.3312 1.4274 40.2882 1.38773 40.1671 1.63541C40.0144 1.94723 39.7646 1.93457 39.3549 1.59406C38.9633 1.26917 38.7629 1.25482 38.7629 1.55187ZM44.881 1.62824C44.7376 1.86031 44.4418 2.05018 44.2232 2.05018C44.0046 2.05018 43.8262 1.86031 43.8262 1.62824C43.8262 1.39617 44.1224 1.2063 44.484 1.2063C44.8456 1.2063 45.0245 1.39617 44.881 1.62824ZM37.3262 2.68309C37.5954 3.77929 37.5519 3.87887 37.0008 3.42529C36.6511 3.1371 36.2443 3.02191 36.097 3.16875C35.9502 3.316 35.5401 3.19617 35.1865 2.9025C34.4346 2.27845 34.3958 2.45018 34.9549 3.92149C35.4156 5.1333 36.2869 5.32022 37.0713 4.3755C37.3582 4.02993 37.7814 3.86368 38.0118 4.0063C38.5228 4.32191 38.0135 2.45862 37.4198 1.83921C37.1608 1.56875 37.127 1.87212 37.3262 2.68309ZM51.438 2.66284C50.7333 3.51178 51.0561 4.75145 52.0308 4.93921C53.146 5.15398 54.0485 3.86157 53.4996 2.83583C52.9958 1.89491 52.1354 1.82233 51.438 2.66284ZM45.092 2.6582C45.092 3.10335 44.2823 3.29069 44.0414 2.90081C43.8958 2.66495 44.0726 2.47212 44.4342 2.47212C44.7958 2.47212 45.092 2.55567 45.092 2.6582ZM53.1089 3.52697C53.1089 4.34343 52.2806 4.76621 51.7397 4.22529C51.419 3.90461 51.4435 3.58689 51.8245 3.1274C52.419 2.41094 53.1089 2.62529 53.1089 3.52697ZM32.2169 3.84343C32.0675 4.25567 32.1658 5.9236 32.4046 7.03794C32.4207 7.11263 32.7468 6.86073 33.1295 6.47803C33.5122 6.09533 34.1734 5.87297 34.5992 5.98436C35.2203 6.14681 35.2924 6.04976 34.9654 5.48984C33.7477 3.40714 32.6186 2.73119 32.2169 3.84343ZM54.4713 3.8101C53.7456 4.53583 53.8249 5.82486 54.6139 6.12782C54.9776 6.26748 55.5 6.15524 55.7743 5.87887C56.1595 5.49069 56.1148 5.43626 55.5776 5.64048C54.6637 5.98816 54.162 5.13583 54.8165 4.34723C55.2342 3.84343 55.4515 3.8274 55.976 4.26031C56.5089 4.69997 56.5852 4.68225 56.4127 4.15989C56.1401 3.33541 55.1287 3.15271 54.4713 3.8101ZM33.6861 4.55609C33.9954 5.13415 33.9857 5.45989 33.6536 5.66495C33.1574 5.9717 32.4511 5.15693 32.4401 4.26537C32.4304 3.45904 33.1941 3.63752 33.6861 4.55609ZM36.6532 4.15989C36.6532 4.39195 36.4747 4.58183 36.2561 4.58183C36.0376 4.58183 35.7418 4.39195 35.5983 4.15989C35.4549 3.92782 35.6338 3.73794 35.9954 3.73794C36.357 3.73794 36.6532 3.92782 36.6532 4.15989ZM29.4262 5.29575C29.062 5.7447 29.038 5.89533 29.3608 5.70124C29.6646 5.51896 30.0941 5.7447 30.4118 6.25313C30.7072 6.72655 31.0975 7.11347 31.2793 7.11347C31.4608 7.11347 31.3194 6.67128 30.9654 6.13035C30.611 5.58984 30.4485 5.02022 30.6038 4.86453C30.7595 4.70925 30.6882 4.58183 30.446 4.58183C30.2038 4.58183 29.7447 4.90292 29.4262 5.29575ZM56.9232 5.19448C56.2034 6.06157 56.5515 7.29913 57.5439 7.40081C58.2025 7.46832 58.2241 7.44005 57.6447 7.26917C56.7527 7.0063 56.6857 6.13415 57.5051 5.45398C57.9781 5.06157 58.1971 5.11685 58.5473 5.71896C58.9317 6.37972 58.992 6.389 59.0034 5.78731C59.0101 5.40588 58.7156 4.97887 58.3485 4.83794C57.4684 4.49997 57.5076 4.49026 56.9232 5.19448ZM43.5312 6.64765C43.954 7.16917 43.8987 7.2236 43.1933 6.98056C42.4101 6.71052 42.4025 6.73077 43.0878 7.26453C43.9046 7.90039 44.1101 8.60461 43.3401 8.12866C43.073 7.96368 42.5983 8.17845 42.2852 8.6063C41.7502 9.33837 41.7148 9.32318 41.6869 8.3544C41.6595 7.40166 41.63 7.38773 41.2945 8.16832C40.9595 8.94765 40.9295 8.95229 40.9021 8.22697C40.876 7.52866 40.7836 7.55187 40.0671 8.43668C39.4916 9.14765 39.4013 9.52065 39.7506 9.74301C40.5236 10.2346 41.154 10.105 40.4506 9.5987C39.9241 9.22022 39.9477 9.18562 40.5907 9.39448C41.0156 9.53246 41.4663 9.64512 41.5916 9.64512C41.7173 9.64512 41.5591 9.96073 41.2405 10.3468C40.789 10.8936 40.7776 11.0873 41.189 11.2257C41.4793 11.3232 41.7165 11.5839 41.7165 11.805C41.7165 12.0282 41.2949 11.9818 40.7671 11.7004C39.881 11.2282 39.8595 11.2455 40.4473 11.9578C41.0312 12.6649 41.0008 12.6987 40.0253 12.4211C39.4468 12.2561 39.1798 12.2763 39.4316 12.4654C39.6835 12.6548 40.1051 13.1894 40.3684 13.6536L40.8468 14.4974L40.8895 13.6536L40.9321 12.8097L41.2945 13.6536C41.63 14.4341 41.6595 14.4202 41.6869 13.4675C41.7148 12.4987 41.7502 12.4835 42.2852 13.2156C42.662 13.7304 43.054 13.873 43.4456 13.6371C43.9494 13.3337 43.9511 13.3869 43.4582 13.9945C43.0194 14.5354 43.0063 14.7084 43.4042 14.7084C43.7768 14.7084 43.8021 14.862 43.4916 15.2358C43.1591 15.6367 43.3405 15.7633 44.2481 15.7633C45.1557 15.7633 45.3371 15.6367 45.0046 15.2358C44.692 14.8595 44.7253 14.7084 45.1211 14.7084C45.465 14.7084 45.3646 14.4599 44.8561 14.0536C44.0603 13.4173 44.0637 13.4063 44.9865 13.6603C45.6785 13.8506 45.9359 13.7422 45.9359 13.2599C45.9359 12.2139 46.7764 12.4911 46.8093 13.5481C46.8376 14.4481 46.8565 14.4536 47.1743 13.6536C47.5021 12.8295 47.5139 12.8291 47.6734 13.6287C47.8169 14.3481 47.8983 14.3122 48.3447 13.3325C48.7954 12.3434 48.7713 12.2477 48.1329 12.4869C47.4823 12.7308 47.4738 12.6814 48.0456 11.9759C48.6392 11.243 48.6198 11.2261 47.7291 11.7004C47.2013 11.9818 46.7798 12.0282 46.7798 11.805C46.7798 11.5839 47.0173 11.3232 47.3072 11.2257C47.7169 11.0877 47.7034 10.8894 47.2477 10.3371C46.7295 9.70967 46.7502 9.66031 47.4224 9.91811C47.9907 10.1363 48.0954 10.0671 47.8346 9.64512C47.581 9.23499 47.673 9.15187 48.1692 9.34216C48.7616 9.56959 48.7873 9.46115 48.3633 8.52993C47.9257 7.57001 47.8439 7.53837 47.5945 8.23373C47.3312 8.9679 47.303 8.96411 47.0966 8.16832C46.8907 7.3755 46.8747 7.37972 46.8287 8.23879C46.8017 8.74132 46.5426 9.23288 46.2523 9.33035C45.8384 9.46959 45.846 9.65482 46.289 10.1911C47.1447 11.2282 45.9177 12.7578 44.1392 12.8717C42.3911 12.9835 41.503 11.5422 42.2836 9.85946C42.676 9.01347 43.0806 8.80714 44.3536 8.80461C45.2241 8.80292 45.9359 8.5987 45.9359 8.35103C45.9359 8.08647 45.5443 8.0101 44.9865 8.16621C44.07 8.42318 44.0738 8.4025 45.092 7.57887L46.1468 6.72529L45.092 6.97212C44.13 7.19702 44.103 7.1679 44.7844 6.63794C45.4675 6.10672 45.4241 6.05567 44.2785 6.04048C43.2245 6.02655 43.1055 6.12318 43.5312 6.64765ZM27.1722 6.67128C26.7625 7.33415 27.2992 8.68351 28.0945 8.98858C29.13 9.38605 30.2194 8.13415 29.6409 7.21094C29.1051 6.35651 27.5734 6.02149 27.1722 6.67128ZM59.1177 7.10756C58.37 8.30461 58.4506 8.43119 59.7544 8.1063C60.8004 7.84596 60.8578 7.88647 60.3359 8.52022C60.0173 8.90672 59.9477 9.22318 60.1819 9.22318C60.4156 9.22318 60.93 8.72993 61.3253 8.12655L62.0435 7.03035L60.6435 7.33752C59.3819 7.61474 59.3 7.57718 59.8144 6.95735C60.1283 6.57929 60.2177 6.26959 60.0131 6.26959C59.8084 6.26959 59.4055 6.64681 59.1177 7.10756ZM29.0118 7.26832C29.3738 7.70461 29.3489 7.96326 28.9084 8.32866C28.4637 8.69744 28.2051 8.66537 27.8122 8.19195C27.3021 7.57761 27.5236 6.69153 28.1878 6.69153C28.3776 6.69153 28.7485 6.95103 29.0118 7.26832ZM61.8266 8.72655C60.8363 9.82022 60.9549 10.1983 62.2127 9.95778C62.9882 9.80925 63.1696 9.87972 62.8456 10.2038C62.0203 11.0291 62.3743 11.4793 63.2354 10.7C64.4144 9.6333 64.2911 9.07845 62.9506 9.41474C61.9549 9.66495 61.8878 9.61938 62.3781 9.02866C63.1717 8.07255 62.6679 7.79659 61.8266 8.72655ZM35.3873 9.22318C35.3873 9.45525 34.9696 9.64512 34.4591 9.64512C33.7933 9.64512 33.6599 9.77423 33.9873 10.1017C34.3148 10.4291 34.6966 10.4004 35.3376 10.0004C36.2798 9.41178 36.5198 8.80124 35.8093 8.80124C35.5772 8.80124 35.3873 8.99111 35.3873 9.22318ZM52.1021 9.46073C51.9629 9.8236 51.6578 10.0025 51.4241 9.85778C51.1903 9.71347 50.9992 9.7966 50.9992 10.0422C50.9992 10.2877 51.1418 10.4831 51.3156 10.4755C51.7574 10.4569 53.1089 9.3987 53.1089 9.07128C53.1089 8.52655 52.3477 8.82107 52.1021 9.46073ZM43.4135 9.8447C42.6093 10.8139 43.0654 11.9658 44.254 11.9658C45.011 11.9658 45.3397 11.7093 45.4342 11.0451C45.6063 9.83415 44.1439 8.96495 43.4135 9.8447ZM36.8511 10.278C36.7422 10.6261 36.5612 11.2038 36.4485 11.562C36.2831 12.0882 36.0717 12.1211 35.3481 11.7337C34.6662 11.3687 34.338 11.3793 33.9709 11.778C33.5983 12.1822 33.654 12.243 34.216 12.0455C34.6616 11.8886 35.1106 12.0687 35.3764 12.5109C35.7827 13.1873 35.8367 13.1856 36.257 12.4844C36.5034 12.0734 36.8515 11.8278 37.0308 11.9384C37.2097 12.0489 37.3565 11.5785 37.3565 10.8924C37.3565 9.52909 37.1595 9.28984 36.8511 10.278ZM53.7599 10.0379C53.6262 10.254 53.6903 10.5375 53.9017 10.6683C54.1131 10.7991 54.3949 10.6223 54.5283 10.2755C54.7907 9.59195 54.1565 9.39575 53.7599 10.0379ZM45.092 10.9109C45.092 11.4734 44.8106 11.7548 44.2481 11.7548C43.6857 11.7548 43.4042 11.4734 43.4042 10.9109C43.4042 10.3485 43.6857 10.0671 44.2481 10.0671C44.8106 10.0671 45.092 10.3485 45.092 10.9109ZM50.9992 11.8852C50.9992 12.073 51.1772 12.1164 51.3954 11.9818C51.6131 11.8472 51.9928 12.0734 52.2392 12.4844C52.6595 13.1856 52.7135 13.1873 53.1198 12.5109C53.3582 12.1143 53.8329 11.8974 54.1747 12.0287C54.5169 12.1599 54.7966 12.086 54.7966 11.865C54.7966 11.6439 53.9422 11.481 52.8979 11.5033C51.8536 11.5257 50.9992 11.6974 50.9992 11.8852ZM50.4747 15.2152C47.7992 15.9257 47.0426 17.2995 45.8135 23.6772C44.6295 29.8198 44.6814 31.0451 46.1405 31.4114C47.37 31.7198 50.4662 30.8785 51.9257 29.8392C52.8671 29.1692 53.2165 29.1143 53.8857 29.5325C54.5304 29.935 54.9954 29.9177 56.1194 29.4485C56.9004 29.1228 57.7743 28.9088 58.062 28.973C58.3494 29.0367 58.9776 28.8789 59.4578 28.6219C59.938 28.365 61.1937 28.0844 62.2485 27.9983C63.3034 27.9122 64.243 27.7658 64.3363 27.6725C64.4295 27.5789 64.8169 25.9055 65.1971 23.9536C65.8414 20.646 66.335 19.3548 66.784 19.8038C66.8865 19.9067 66.7063 21.2232 66.3835 22.7295C65.4776 26.9565 65.5376 27.4375 66.9274 27.1055C68.7743 26.6641 69.0127 26.2717 69.5565 22.778C69.8388 20.9616 70.2308 19.2152 70.4274 18.8974C71.1072 17.797 71.3329 18.8789 70.8717 21.0291C69.8688 25.7046 70.4882 26.7232 73.4236 25.2257L75.1241 24.3578L74.8236 25.335C74.6582 25.8721 74.4992 26.3325 74.47 26.3578C74.2059 26.5856 12.4376 40.4223 12.2996 40.2844C12.1987 40.1839 12.8641 36.3768 13.7785 31.8244C14.6924 27.2721 15.3241 23.478 15.1819 23.3932C15.0397 23.308 14.2696 23.4557 13.4705 23.7202C11.8814 24.2477 11.9937 23.9742 10.6873 30.4958C10.1186 33.335 9.64895 34.5768 8.77131 35.5586C8.13207 36.2742 7.51477 36.765 7.39958 36.6489C7.28439 36.5333 7.64684 34.1599 8.20507 31.3751C8.76329 28.5903 9.13249 26.0747 9.02574 25.7844C8.76076 25.065 6.7865 25.1223 3.40675 25.9481C0.373421 26.6886 -0.301262 27.0498 0.108865 27.7135C0.276797 27.9852 1.14979 27.9257 2.5827 27.5443C3.80043 27.2198 4.93882 26.9523 5.11308 26.9498C5.62194 26.9417 5.48692 28.4333 4.55275 33.1299C3.86414 36.5932 3.78481 37.6696 4.1827 38.1489C4.83798 38.9388 5.58059 38.919 7.24389 38.0683C8.56751 37.3911 8.58017 37.3936 7.87173 38.1894C7.47469 38.6358 6.85992 39.6941 6.50591 40.5409C5.93545 41.9063 5.64557 42.1139 3.95317 42.3675C2.90296 42.5249 1.92279 42.8493 1.77511 43.0886C1.60169 43.3688 1.9038 43.4266 2.62405 43.251C3.23882 43.1012 4.21646 42.8628 4.79663 42.7219C5.66709 42.5101 5.85148 42.619 5.85148 43.3468C5.85148 45.4173 10.3295 44.4903 11.5287 42.1713C12.0755 41.1135 12.8186 40.8953 25.9616 37.9312C33.5823 36.2126 40.1025 34.773 40.4506 34.7316C40.7987 34.6907 41.3684 34.546 41.7165 34.4105C42.0646 34.2751 46.2418 33.289 50.9992 32.2198C65.8055 28.8911 72.7009 27.3198 73.4675 27.0995C74.0405 26.9354 74.2059 27.1426 74.2059 28.024C74.2059 29.0768 74.3046 29.1401 75.5561 28.8898C76.9861 28.6038 77.5646 28.0261 77.5751 26.8738C77.5802 26.3282 78.5063 25.9658 81.6954 25.2616C86.3283 24.2379 88.2768 23.6527 87.2177 23.6025C86.8321 23.5844 84.6008 24.0219 82.2599 24.5751C78.838 25.3839 78.0034 25.4666 78.0034 24.997C78.0034 24.6759 78.2814 24.4131 78.6215 24.4131C78.9616 24.4131 79.8886 23.8434 80.6814 23.1472C81.4743 22.451 82.4553 21.8814 82.8616 21.8814C83.7287 21.8814 86.4422 19.1409 86.4422 18.265C86.4422 17.3093 85.8342 17.5578 84.8211 18.9278C83.3435 20.9266 82.7498 20.5844 82.8068 17.7675L82.8557 15.3413L81.3789 15.4122C80.5667 15.4514 79.1527 15.6426 78.2367 15.8379L76.5709 16.1924L75.916 19.3109C75.5106 21.2401 74.9869 22.6008 74.5426 22.8789C73.5017 23.5304 73.3764 23.1734 73.8776 20.9844C74.7165 17.3185 73.5232 15.7198 71.0418 17.1839C70.2177 17.67 69.2384 17.9046 68.5671 17.7763C67.9122 17.651 67.0127 17.8548 66.3747 18.2725C65.7798 18.6624 64.789 18.9219 64.1726 18.8489C63.0933 18.7215 63.0287 18.8346 62.4055 21.9308C61.7814 25.0312 60.9595 26.7304 60.2848 26.3139C60.1072 26.2038 60.2169 24.9244 60.5291 23.4704C61.3186 19.7903 61.3013 19.6185 60.1764 19.9696C59.654 20.1329 58.6899 20.246 58.0338 20.2206C56.3928 20.1582 54.1831 22.4346 53.5338 24.8561C53.257 25.8886 52.8916 27.0185 52.7219 27.3666C52.3093 28.2122 48.6046 30.1763 48.1949 29.7666C47.8004 29.3717 50.0527 17.6628 50.6654 16.9236C51.2595 16.2067 51.843 16.259 51.843 17.0291C51.843 17.9274 52.462 17.8147 53.7857 16.6763C55.7962 14.9468 54.176 14.232 50.4747 15.2152ZM80.5173 17.1346C80.4776 18.7725 79.3954 22.4721 78.9084 22.6346C78.3646 22.816 78.3675 22.7848 79.2869 18.6114C79.7494 16.5131 80.5557 15.5451 80.5173 17.1346ZM57.5186 23.4637C56.9992 26.5059 56.4418 28.2341 56.0565 27.9958C55.4211 27.6033 56.6443 21.8814 57.3637 21.8814C57.6211 21.8814 57.6823 22.5042 57.5186 23.4637ZM32.2827 26.4173C32.1684 26.8236 31.9502 27.8202 31.7975 28.6325C31.1549 32.0569 30.6971 33.2738 30.0511 33.2738C29.5553 33.2738 29.4553 33.0084 29.6536 32.2185C29.7992 31.6384 30.0317 30.3354 30.1705 29.3236C30.4127 27.5569 30.3705 27.4654 29.1097 27.0261C27.6224 26.5071 27.8477 26.0789 26.7249 31.5624C26.3713 33.2898 25.992 34.7928 25.8823 34.9025C25.2941 35.4907 25.2793 34.2789 25.838 31.3194C26.1823 29.4974 26.4131 27.9565 26.3515 27.8949C26.2899 27.8333 25.6549 27.8995 24.9405 28.0426C24.0363 28.2232 23.5646 28.6093 23.3882 29.3114C23.0692 30.5831 22.4084 30.6194 22.2312 29.3751C22.157 28.8552 21.7616 28.3662 21.3523 28.2882C20.2814 28.0844 16.5008 29.8928 15.8169 30.9363C15.0658 32.0827 14.1608 36.1346 14.3523 37.4932C14.4865 38.4422 14.6789 38.5405 16.27 38.4704C17.2426 38.4282 18.4392 38.1785 18.9295 37.9164C20.0304 37.327 21.4595 35.0502 21.4616 33.8818C21.4625 33.4042 21.7565 32.6447 22.1152 32.1941C22.7186 31.4358 22.7477 31.5337 22.508 33.5143C22.2042 36.0211 22.8481 36.8903 24.7295 36.5126C28.2734 35.8021 29.3937 35.4599 30.4595 34.7612C31.8131 33.8747 33.8084 31.1059 34.4017 29.292C34.9346 27.6633 36.0447 27.216 35.6498 28.7886C35.4966 29.3991 35.257 30.7329 35.1169 31.7527C34.892 33.3941 34.9667 33.6392 35.7709 33.8945C36.8911 34.2502 40.0198 32.5173 41.0236 30.9852C41.8 29.8004 41.9346 28.6325 41.2945 28.6325C41.0625 28.6325 40.8726 28.7865 40.8726 28.9747C40.8726 29.4974 39.2127 31.1641 38.6924 31.1641C38.3949 31.1641 38.3253 30.586 38.4949 29.5257C38.8013 27.6114 38.5629 27.3489 35.6287 26.3717C33.0034 25.497 32.5401 25.5033 32.2827 26.4173ZM20.8304 29.8983C20.9738 30.1304 20.8899 30.3202 20.6443 30.3202C20.3987 30.3202 20.1975 30.1304 20.1975 29.8983C20.1975 29.6662 20.281 29.4763 20.3835 29.4763C20.4861 29.4763 20.6869 29.6662 20.8304 29.8983ZM18.5207 34.6979C18.2498 36.0033 17.8515 37.0713 17.6359 37.0713C17.1148 37.0713 17.1418 36.0333 17.7401 33.0536C18.1527 30.9995 18.3017 30.7295 18.6249 31.4536C18.8722 32.0076 18.8342 33.1873 18.5207 34.6979ZM65.7671 33.0877C65.7671 33.4493 65.957 33.6282 66.189 33.4848C66.4211 33.3413 66.611 33.0455 66.611 32.827C66.611 32.6084 66.4211 32.4299 66.189 32.4299C65.957 32.4299 65.7671 32.7261 65.7671 33.0877ZM67.5979 33.4401C68.2308 34.4067 68.2194 34.443 67.33 34.2755C66.4523 34.1101 66.4477 34.1232 67.2439 34.5012C68.8447 35.262 69.3105 35.07 68.5776 33.9515C67.9439 32.9839 67.9553 32.9498 68.8456 33.1439C69.5962 33.308 69.6536 33.2599 69.1426 32.8949C68.7945 32.6464 68.1557 32.4401 67.7228 32.4363C66.9895 32.4304 66.981 32.4987 67.5979 33.4401ZM50.1819 35.278C50.1536 36.2949 49.5046 36.5717 49.1933 35.7C49.0899 35.4101 48.8713 35.2958 48.7084 35.4464C48.5452 35.5974 48.8515 36.1375 49.389 36.6468L50.3662 37.573L48.7325 36.9C46.4536 35.962 45.8215 36.0928 47.7405 37.1059C48.6169 37.5683 49.6612 37.8924 50.0612 37.8257C50.5304 37.7472 50.7679 37.962 50.7316 38.4308C50.689 38.9763 51.0312 38.8215 52.103 37.8105C52.8882 37.0696 53.5308 36.4219 53.5308 36.3704C53.5308 36.3194 53.0084 36.5498 52.3705 36.8827C50.8844 37.6582 50.4262 37.6519 50.7295 36.8607C50.8633 36.5131 50.8004 35.8008 50.5907 35.2785L50.2089 34.3287L50.1819 35.278ZM65.9198 35.5945C65.5211 36.6333 66.0945 37.4932 67.1857 37.4932C68.3363 37.4932 68.8447 36.6624 68.2422 35.7671C67.9283 35.3008 67.8684 35.3455 67.9646 35.9725C68.0325 36.4126 67.8422 36.8586 67.5418 36.9633C67.1451 37.1021 67.0713 36.8548 67.2713 36.0578C67.4836 35.2114 67.3886 34.9616 66.8544 34.9616C66.4738 34.9616 66.0532 35.2464 65.9198 35.5945ZM41.2945 36.4979C41.2945 37.4033 41.1819 37.5493 40.7882 37.1557C40.5097 36.8772 39.919 36.6493 39.4755 36.6493C38.7464 36.6493 38.7646 36.7287 39.6654 37.4793L40.6616 38.3088L39.7219 38.3232C38.7506 38.3375 37.1523 40.2426 37.6738 40.7641C37.8338 40.9244 38.097 40.8519 38.2582 40.6034C38.4198 40.3548 39.008 39.9109 39.5654 39.6168C40.4878 39.1308 40.5481 39.1536 40.2392 39.8704C40.0527 40.3033 39.8266 41.3223 39.7363 42.1346C39.5835 43.5143 39.646 43.4586 40.6857 41.2907C41.2975 40.0143 41.8772 38.8886 41.9734 38.789C42.07 38.6894 42.716 39.0274 43.4093 39.5401C44.103 40.0527 44.67 40.319 44.67 40.1312C44.67 39.4481 43.3401 37.9152 42.7473 37.9152C42.3831 37.9152 42.1384 37.5012 42.1384 36.8852C42.1384 36.3185 41.9485 35.7379 41.7165 35.5945C41.4743 35.4447 41.2945 35.8291 41.2945 36.4979ZM67.0329 35.7806C67.0329 35.9991 66.843 36.2949 66.611 36.4384C66.3789 36.5818 66.189 36.4029 66.189 36.0413C66.189 35.6797 66.3789 35.3835 66.611 35.3835C66.843 35.3835 67.0329 35.562 67.0329 35.7806ZM64.762 37.7261C64.419 38.6202 64.4177 38.6152 65.0287 38.6384C65.319 38.6493 65.9359 38.8042 66.4 38.9818C67.1384 39.265 67.1646 39.2316 66.611 38.7156C66.2629 38.3915 65.7633 37.8831 65.5004 37.5865C65.1173 37.1531 64.9713 37.1806 64.762 37.7261ZM49.0831 38.7873C48.6291 39.5219 49.146 39.6776 49.7249 38.9801C50.0578 38.5793 50.0899 38.3371 49.8097 38.3371C49.5633 38.3371 49.2359 38.5396 49.0831 38.7873ZM63.7473 39.6823C62.9899 40.4392 63.1236 41.2012 64.1063 41.727C65.1228 42.2713 66.2059 41.6249 66.1625 40.5008C66.1443 40.0358 66.0122 40.1206 65.754 40.7633C65.5439 41.2852 65.1561 41.7126 64.8916 41.7126C64.6055 41.7126 64.5274 41.4135 64.6983 40.9742C64.8565 40.5679 65.019 40.0696 65.0599 39.8666C65.1823 39.2578 64.2958 39.1333 63.7473 39.6823ZM8.63123 41.1831C8.17047 41.6439 7.85443 40.9109 8.18524 40.1485C8.49916 39.4257 8.52194 39.4261 8.69663 40.1633C8.79747 40.5877 8.76794 41.0464 8.63123 41.1831ZM64.3342 40.7544C63.9055 41.1835 63.5515 40.5375 63.9034 39.9683C64.1692 39.5379 64.2688 39.5379 64.4114 39.9666C64.5093 40.2599 64.4743 40.6143 64.3342 40.7544ZM23.362 41.0666L22.0962 42.1042L23.308 42.1194C24.3371 42.1325 24.4409 42.2304 23.9949 42.7675C23.2034 43.7215 24.1709 43.5278 25.0498 42.5565C25.7962 41.7316 25.7869 41.7126 24.6279 41.7126C23.4688 41.7126 23.4595 41.6936 24.2059 40.8688C25.2371 39.7291 24.8962 39.8093 23.362 41.0666ZM43.9156 41.7793C45.0089 42.7869 46.1346 44.181 46.4169 44.8772C46.9274 46.1354 46.9316 46.1367 47.1076 45.1017C47.289 44.0329 46.5802 43.2531 43.3181 40.9354C42.4304 40.3042 42.6464 40.6093 43.9156 41.7793ZM62.0042 41.8818C61.6325 42.3299 61.7283 42.8143 62.4203 43.9869C63.4308 45.7 63.589 45.8181 63.5051 44.7962C63.473 44.4038 63.8806 43.8607 64.4114 43.5894L65.3764 43.0962L64.4114 42.4793C63.8806 42.1401 63.2304 41.7358 62.9667 41.5814C62.703 41.4266 62.27 41.562 62.0042 41.8818ZM63.6641 43.5624C63.1004 44.1261 61.7443 42.8401 62.1726 42.1477C62.3895 41.7966 62.7055 41.8658 63.2873 42.3924C63.8447 42.897 63.9629 43.2637 63.6641 43.5624ZM27.2591 43.8797C27.6165 44.2371 27.5662 44.5308 27.0608 45.0363C26.5629 45.5341 26.3371 45.5751 26.2089 45.1898C26.1127 44.9017 25.8536 44.6662 25.6325 44.6662C25.4 44.6662 25.4287 45.0354 25.7004 45.543C25.9688 46.0447 26.4262 46.3211 26.77 46.189C27.1173 46.0557 27.3705 46.2135 27.3705 46.5633C27.3705 46.8962 27.7262 47.3586 28.1612 47.5915C28.7692 47.9169 29.1224 47.8261 29.689 47.2C30.5384 46.262 30.2675 45.0882 29.2017 45.0882C28.5544 45.0882 28.5646 45.1582 29.2941 45.7274C30.0662 46.3304 30.0405 46.351 28.8473 46.0903C27.2477 45.7405 27.0405 45.5531 27.7608 45.108C28.4245 44.6974 28.0743 43.4004 27.2992 43.4004C26.9114 43.4004 26.9013 43.5219 27.2591 43.8797ZM49.7333 43.7219C49.7333 43.9759 49.435 44.4823 49.0705 44.8472C48.7055 45.2118 48.6038 45.5101 48.8443 45.5101C49.3785 45.5101 50.3198 43.846 49.9785 43.505C49.8435 43.37 49.7333 43.4679 49.7333 43.7219ZM58.7072 45.0882C58.3097 45.5523 57.7654 45.932 57.497 45.932C56.6165 45.932 55.8688 47.173 56.4177 47.7219C56.9844 48.2886 57.0705 49.3076 56.5523 49.3076C56.3574 49.3076 55.9785 48.8257 55.7101 48.2367C55.3 47.3371 55.089 47.2375 54.3886 47.6122C53.7253 47.9671 53.6072 48.3367 53.8097 49.4215C53.9498 50.1709 54.257 50.9742 54.4924 51.2063C54.7793 51.489 54.8283 51.4641 54.6414 51.1312C54.4051 50.7097 55.9523 49.8266 56.4173 50.1177C56.4966 50.1671 56.8076 49.8709 57.1084 49.4595C57.5599 48.8417 57.5494 48.5493 57.0468 47.7827C56.1502 46.4143 57.2093 45.927 58.2207 47.2426C58.6477 47.7983 59.0017 48.0266 59.0068 47.7502C59.0118 47.4738 58.8262 47.1304 58.5941 46.9869C57.9418 46.5839 58.0958 45.9291 58.781 46.1924C59.116 46.3206 59.4738 46.7417 59.576 47.1282C59.7004 47.5987 59.7781 47.5076 59.811 46.8531C59.8515 46.0409 60.0207 45.9244 60.8093 46.1671L61.7587 46.4586L60.7359 45.3515C59.511 44.0257 59.6063 44.0384 58.7072 45.0882ZM59.9038 45.635C59.362 46.1768 58.8131 45.7582 59.2139 45.1093C59.3692 44.8582 59.6895 44.7721 59.9257 44.9181C60.2139 45.0962 60.2068 45.332 59.9038 45.635ZM48.2565 46.354C48.4 46.5861 48.7072 46.7759 48.9392 46.7759C49.1713 46.7759 49.2439 46.5861 49.1004 46.354C48.957 46.1219 48.6498 45.932 48.4177 45.932C48.1857 45.932 48.1131 46.1219 48.2565 46.354ZM28.8473 46.7759C28.9907 47.008 28.8118 47.1979 28.4502 47.1979C28.0886 47.1979 27.7924 47.008 27.7924 46.7759C27.7924 46.5439 27.9709 46.354 28.1895 46.354C28.408 46.354 28.7038 46.5439 28.8473 46.7759ZM31.4177 48.2527C31.0376 48.8329 30.908 49.3076 31.13 49.3076C31.3515 49.3076 31.6536 48.9278 31.8008 48.4637C31.9481 47.9996 32.2346 47.6198 32.4371 47.6198C33.1954 47.6198 33.2852 48.4725 32.6798 49.9219C32.3359 50.7443 32.235 51.4173 32.4553 51.4173C32.6755 51.4173 32.8557 51.2071 32.8557 50.9502C32.8557 50.6924 33.1629 50.6008 33.5422 50.7464C33.9194 50.8915 34.489 50.7936 34.808 50.5291C35.7886 49.7152 35.4646 48.5641 34.0565 47.8616C32.3232 46.997 32.2317 47.0105 31.4177 48.2527ZM50.1553 48.4637C49.7751 48.7093 49.7228 48.8751 50.0249 48.8793C50.3013 48.8827 50.6447 48.6958 50.7882 48.4637C51.1118 47.9396 50.9658 47.9396 50.1553 48.4637ZM55.3857 48.7126C55.6726 49.4607 55.3781 50.1515 54.7717 50.1515C54.5532 50.1515 54.3747 49.6768 54.3747 49.0966C54.3747 47.9164 54.9903 47.6827 55.3857 48.7126ZM34.9591 48.9911C34.9553 49.2814 34.7734 49.8017 34.5544 50.1481C34.027 50.9823 33.1443 50.1455 33.5198 49.1671C33.8333 48.3506 34.9684 48.2118 34.9591 48.9911ZM36.0591 49.2447C35.9156 49.4768 36.17 49.5561 36.6527 49.4299C37.1169 49.3084 37.4971 49.408 37.4971 49.651C37.4971 49.8941 37.0696 50.1536 36.5477 50.2274C35.2236 50.4156 35.3148 51.6282 36.6532 51.6282C37.543 51.6282 37.708 51.4308 37.708 50.3683C37.708 49.1114 36.6059 48.3603 36.0591 49.2447ZM50.6578 50.0088C50.4097 50.6911 50.2076 50.8991 50.1886 50.4928C50.1705 50.1004 49.9578 49.6574 49.7165 49.508C49.4291 49.3304 49.3751 49.6498 49.5599 50.4325C49.9747 52.1886 50.4317 52.4763 50.7557 51.1852C51.0291 50.0966 51.0684 50.0818 51.6751 50.8379C52.2734 51.5844 52.2933 51.5696 52.0283 50.5734C51.5848 48.9034 51.1291 48.7156 50.6578 50.0088ZM38.6342 49.9991C38.473 50.1603 38.3561 50.7827 38.3743 51.3823C38.3924 51.9818 38.5034 52.235 38.6203 51.9447C38.9401 51.1527 40.0228 51.3101 40.0709 52.1557C40.0987 52.6481 40.2253 52.5426 40.4506 51.8392C41.0118 50.0873 40.9485 49.4645 40.2996 50.3515C39.7684 51.0785 39.6979 51.0835 39.327 50.4207C39.1072 50.0274 38.7954 49.838 38.6342 49.9991ZM47.0789 49.9928C46.5865 50.4856 46.7397 51.7029 47.3591 52.2169C47.9945 52.7443 49.3114 52.424 49.3114 51.7426C49.3114 51.5008 49.0278 51.5493 48.6608 51.854C48.2139 52.2249 47.8734 52.2578 47.5747 51.959C47.2764 51.6607 47.4895 51.4367 48.2557 51.2443C48.8692 51.0903 49.2954 50.7337 49.203 50.4523C49.0097 49.8662 47.5262 49.5455 47.0789 49.9928ZM41.3658 51.4173L41.3228 52.8941L42.1219 51.9358L42.9211 50.9772L43.1051 51.9358C43.2274 52.5721 43.3038 52.3979 43.3329 51.4173L43.376 49.9405L42.5768 50.8987L41.7776 51.8574L41.5937 50.8987C41.4713 50.2624 41.3949 50.4367 41.3658 51.4173ZM43.992 50.819C44.1329 51.1861 44.2481 51.7557 44.2481 52.0848C44.2481 52.4363 44.6688 52.6831 45.2679 52.6831C45.8287 52.6831 46.392 52.9207 46.5198 53.2105C46.6477 53.5008 46.6384 52.9785 46.4992 52.0502C46.1937 50.0156 45.9359 49.597 45.9359 51.1358C45.9359 51.8548 45.7072 52.2612 45.303 52.2612C44.9093 52.2612 44.67 51.8628 44.67 51.2063C44.67 50.6261 44.4599 50.1515 44.203 50.1515C43.946 50.1515 43.8511 50.4519 43.992 50.819ZM48.2565 50.5734C48.1131 50.8055 47.8059 50.9953 47.5738 50.9953C47.3418 50.9953 47.2692 50.8055 47.4127 50.5734C47.5561 50.3413 47.8633 50.1515 48.0954 50.1515C48.3274 50.1515 48.4 50.3413 48.2565 50.5734ZM37.1595 51.0797C36.7658 51.4734 36.5405 51.4734 36.1468 51.0797C35.7532 50.6861 35.8654 50.5734 36.6532 50.5734C37.4409 50.5734 37.5532 50.6861 37.1595 51.0797Z" fill="#51A3F5"/>
</svg>
